/* XPM */
static char *f160f185ae5d4f94f4595f32104dba13rKuYHjBo6PI3UWKX[] = {
/* columns rows colors chars-per-pixel */
"100 100 71 1 ",
"  c None",
". c #D1A800",
"X c #D2A800",
"o c #D2A900",
"O c #D3A900",
"+ c #D3AA00",
"@ c #D4AA00",
"# c #D5AA00",
"$ c #D5AB00",
"% c #D6AB00",
"& c #D6AC00",
"* c #D7AC00",
"= c #D7AD00",
"- c #D8AD00",
"; c #D9AE00",
": c #DAAF00",
"> c #DBAF00",
", c #DBB000",
"< c #DCB000",
"1 c #DDB100",
"2 c #DDB200",
"3 c #DEB200",
"4 c #DFB300",
"5 c #E0B400",
"6 c #E1B400",
"7 c #E2B500",
"8 c #E3B600",
"9 c #E4B700",
"0 c #E5B700",
"q c #E6B800",
"w c #E6B900",
"e c #E7BA00",
"r c #E8B900",
"t c #E8BA00",
"y c #E9BB00",
"u c #EABC00",
"i c #EBBC00",
"p c #ECBD00",
"a c #EDBE00",
"s c #EEBE00",
"d c #EEBF00",
"f c #EFBF00",
"g c #EFC000",
"h c #F0C100",
"j c #F1C100",
"k c #F1C200",
"l c #F2C200",
"z c #F3C300",
"x c #F4C300",
"c c #F4C400",
"v c #F5C400",
"b c #F5C500",
"n c #F6C500",
"m c #F6C600",
"M c #F7C600",
"N c #F7C700",
"B c #F8C700",
"V c #F9C700",
"C c #F9C800",
"Z c #FAC800",
"A c #FAC900",
"S c #FBC900",
"D c #FBCA00",
"F c #FCC900",
"G c #FCCA00",
"H c #FDCA00",
"J c #FCCB00",
"K c #FDCB00",
"L c #FECB00",
"P c #FECC00",
"I c #FFCC00",
/* pixels */
"                                             GGGGGGGGGG                                             ",
"                                            GPPGGPPGGPPG                                            ",
"                                            GPGPGPGPPGPG                                            ",
"                                            PGPGPGPGGPGG                                            ",
"                                            PGPGGPGPGPGP                                            ",
"                                            GPGPPGPGPGPG                                            ",
"                                            PGPGGPGPGPGPZ                                           ",
"                                            GPGPPGPGPGPGZ                                           ",
"                                           GPGPGGPGPGPGPZ                                           ",
"                                           GPPGPPGPGPGPGG                                           ",
"                                           GPGPGGPGPGPGPZ                                           ",
"                                           GPPGPPGPGPGPGG                                           ",
"                                           GPPPGGPGPGPGPZ                                           ",
"                                           GPGGPPGPGPGPGP                                           ",
"                                           PPGPGGPGPGPGPG                                           ",
"                                           GPPGPPGPGPGPPG                                           ",
"                                           PPPGPGPGPGPGPZ                                           ",
"                                           GPGPGPGPGPGPGG                                           ",
"                                           PPGGPGPGPGPGPG                                           ",
"                                           GPPPGPGPGPGPGG                                           ",
"                                           GPPGPGPGPGPGPG                                           ",
"                                           PPGPGPGPGPGPGG                                           ",
"                                           GPPGPGPGPGPGPP                                           ",
"                                           PPGPGPGPGPGPGP                                           ",
"                                           PPGGPGPGPGPGPZ                                           ",
"                                           PPPPGPGPGPGPGP                                           ",
"                                           GPPGPGPGPGPGPP                                           ",
"                                           PPGPGPGPGPGPGP                                           ",
"                                           PPPGPGPGPGPGPG                                           ",
"                                           PPGPGPGPGPGPGP                                           ",
"                                           PPGGPGPGPGPGPG                                           ",
"                                           PPPPGPGPGPGPGP                                           ",
"                                           PPGGPGPGPGPGPG                                           ",
"                                           PPPPGPGPGPGPGP                                           ",
"                                           PPPGPGPGPGPGPG                                           ",
"                                           PPGPGPGPGPGPGP                                           ",
"                                           PPPGPGPGPGPGPG                                           ",
"                                           PPGPGPGPGPGPGP                                           ",
"                                           PPGGPGPGPGPGPGZ                                          ",
"                                           PPPPGPGPGPGPGPG                                          ",
"                                           PPPGPGPGPGPGPGZ                                          ",
"                                           PPGPGPGPGPGPGPZ                                          ",
"                                           PPPGPGPGPGPGPPV                                          ",
"                                           PPGPGPGPGPGPGPN                                          ",
"                                           PPGGPGPGPGPGPGZ                                          ",
"                                           PPPPGPGPGPGPGPZ                                          ",
"                                           PPPGPGPGPGPGPGZ                                          ",
"                                           PPGPGPGPGPGPPPZ                                          ",
"                                           PPPGPGPGPGPGPGZ                                          ",
"                                           PPGPGPGPGPGPGPP                                          ",
"                                           PPGGPGPGPGPGPPP                                          ",
"                                           PPPPGPGPGPGPGGZ                                          ",
"                                           PPPGPGPGPGPGPPG                                          ",
"                                           PPGPGPGPGPGPGPZ                                          ",
"                                           PPPGPGPGPGPGPGZ                                          ",
"                                           PPGPGPGPGPGPGPZ                                          ",
"                                           PPGGPPGPGPGPGJZ                                          ",
"                                           PPPPGGPGPGPGPGN                                          ",
"                                           PPPGPPGPGPGPGPZ                                          ",
"                                           PPGPGGPGPGPGPGZ                                          ",
"                                           PPGPGPGPGPGPGPG                                          ",
"                                           PPPGPGPGPGPGPPZ                                          ",
"                                           PPGPGGPPGPGGPG                                           ",
"                                           PGGGGGGGGGGGGG                                           ",
"                                           GZZZZZZZZZZZZZ                                           ",
"                                           GZVZZAZZNZZZZZ                                           ",
"                                           GVVNVAANNNAAAN                                           ",
"                                           VxNxNbbbNbbbbN                                           ",
"                                           VxNNxxxxxbNNhN                                           ",
"                                           xxhxxxNhNhhhxN                                           ",
"                                           Nhhxhhhhxxhxhh                                           ",
"                                           hhhhhhhhhhhhhh                                           ",
"                                           hhhghhhhhggggg                                           ",
"                                           hppppppppiggig                                           ",
"                                           pppipppppgiiip                                           ",
"                                           ppiiiiippiiiyi                                           ",
"                                           pyyyyyyiqiyyyi                                           ",
"                                           yyyyqqyiqyqyyy                                           ",
"                                           yqqqqqqqqqqqqq                                           ",
"                                           999q9q9qqq9q99                                           ",
"                                           97979979797979                                           ",
"                                           77777777777777                                           ",
"                                           74444555555457                                           ",
"                                           44444444444444                                           ",
"                                           44444444,44444                                           ",
"                                           :::4>:>4,>>:::                                           ",
"                                           ::::::>:::>:::                                           ",
"                                           ::::@:@:::$:::                                           ",
"                                           :@:@::@::@:@:$                                           ",
"                                           @@:@:@*@:@:@@$                                           ",
"                                           @@@$$$$$$$$$$O                                           ",
"                                           @@@@@@@@@@@@@O                                           ",
"                                           O@@@@@@@@@@@@O                                           ",
"                                            @@@@@@@@@@@@O                                           ",
"                                            @@@@@@@@@@@@                                            ",
"                                            @@@@@@@@@@@@                                            ",
"                                            @@@@@@@@@@@@                                            ",
"                                            O@@@@@@@@@OO                                            ",
"                                            O@@@@@@@@@@O                                            ",
"                                            O@@@@@@@@@@O                                            "
};
